<svg xmlns="http://www.w3.org/2000/svg" version="1.1" xmlns:xlink="http://www.w3.org/1999/xlink" xmlns:svgjs="http://svgjs.dev/svgjs" width="1500" height="1500" viewBox="0 0 1500 1500"><rect width="1500" height="1500" fill="#ffffff"></rect><g transform="matrix(0.6666666666666666,0,0,0.6666666666666666,249.39393939393938,520.2940918545216)"><svg viewBox="0 0 396 182" data-background-color="#ffffff" preserveAspectRatio="xMidYMid meet" height="689" width="1500" xmlns="http://www.w3.org/2000/svg" xmlns:xlink="http://www.w3.org/1999/xlink"><g id="tight-bounds" transform="matrix(1,0,0,1,0.2400000000000091,0.015548510472569887)"><svg viewBox="0 0 395.52 181.96890297905486" height="181.96890297905486" width="395.52"><g><svg viewBox="0 0 395.52 181.96890297905486" height="181.96890297905486" width="395.52"><g transform="matrix(1,0,0,1,0,112.46408227138448)"><svg viewBox="0 0 395.52 69.50482070767039" height="69.50482070767039" width="395.52"><g id="textblocktransform"><svg viewBox="0 0 395.52 69.50482070767039" height="69.50482070767039" width="395.52" id="textblock"><g><svg viewBox="0 0 395.52 69.50482070767039" height="69.50482070767039" width="395.52"><g transform="matrix(1,0,0,1,0,0)"><svg width="395.52" viewBox="1.95 -36.5 210.53 37" height="69.50482070767039" data-palette-color="#6b7280"><path d="M1.95-18L1.95-18Q1.95-21.25 3.08-24.38 4.2-27.5 6.38-30.08 8.55-32.65 11.7-34.18 14.85-35.7 18.85-35.7L18.85-35.7Q23.6-35.7 27-33.52 30.4-31.35 32.05-27.95L32.05-27.95 28.5-25.65Q27.45-27.9 25.83-29.23 24.2-30.55 22.33-31.1 20.45-31.65 18.65-31.65L18.65-31.65Q15.7-31.65 13.43-30.45 11.15-29.25 9.6-27.25 8.05-25.25 7.28-22.78 6.5-20.3 6.5-17.8L6.5-17.8Q6.5-15.05 7.43-12.5 8.35-9.95 10-8 11.65-6.05 13.9-4.9 16.15-3.75 18.8-3.75L18.8-3.75Q20.65-3.75 22.6-4.4 24.55-5.05 26.25-6.43 27.95-7.8 28.95-10L28.95-10 32.7-7.95Q31.6-5.3 29.3-3.45 27-1.6 24.18-0.65 21.35 0.3 18.6 0.3L18.6 0.3Q14.95 0.3 11.9-1.28 8.85-2.85 6.63-5.48 4.4-8.1 3.18-11.38 1.95-14.65 1.95-18ZM49.05 0.5L49.05 0.5Q46.1 0.5 43.7-0.58 41.3-1.65 39.55-3.53 37.8-5.4 36.85-7.85 35.9-10.3 35.9-13L35.9-13Q35.9-15.75 36.85-18.2 37.8-20.65 39.55-22.53 41.3-24.4 43.72-25.48 46.15-26.55 49.1-26.55L49.1-26.55Q52-26.55 54.4-25.48 56.8-24.4 58.57-22.53 60.35-20.65 61.3-18.2 62.25-15.75 62.25-13L62.25-13Q62.25-10.3 61.3-7.85 60.35-5.4 58.6-3.53 56.85-1.65 54.42-0.58 52 0.5 49.05 0.5ZM40.4-12.95L40.4-12.95Q40.4-10.25 41.57-8.05 42.75-5.85 44.7-4.58 46.65-3.3 49.05-3.3L49.05-3.3Q51.45-3.3 53.42-4.6 55.4-5.9 56.57-8.13 57.75-10.35 57.75-13.05L57.75-13.05Q57.75-15.75 56.57-17.95 55.4-20.15 53.42-21.45 51.45-22.75 49.05-22.75L49.05-22.75Q46.65-22.75 44.7-21.43 42.75-20.1 41.57-17.9 40.4-15.7 40.4-12.95ZM79.15 0.5L79.15 0.5Q76.2 0.5 73.77-0.58 71.35-1.65 69.57-3.55 67.8-5.45 66.82-7.9 65.85-10.35 65.85-13.1L65.85-13.1Q65.85-16.8 67.5-19.85 69.15-22.9 72.15-24.73 75.15-26.55 79.1-26.55L79.1-26.55Q82.95-26.55 85.82-24.83 88.7-23.1 90.1-20.2L90.1-20.2 85.8-18.85Q84.8-20.7 83-21.73 81.2-22.75 79-22.75L79-22.75Q76.6-22.75 74.62-21.5 72.65-20.25 71.5-18.07 70.35-15.9 70.35-13.1L70.35-13.1Q70.35-10.35 71.52-8.13 72.7-5.9 74.67-4.6 76.65-3.3 79.05-3.3L79.05-3.3Q80.6-3.3 82.02-3.85 83.45-4.4 84.52-5.33 85.6-6.25 86-7.35L86-7.35 90.3-6.05Q89.5-4.15 87.87-2.68 86.25-1.2 84.02-0.35 81.8 0.5 79.15 0.5ZM118.44 0L113.69 0 104.64-12.7 99.69-8.05 99.69 0 95.29 0 95.29-36.5 99.69-36.5 99.69-12.65 113.19-26.05 117.94-26.05 107.54-15.25 118.44 0ZM134.69-4.8L135.74-1.3Q135.19-1.05 134.24-0.65 133.29-0.25 132.04 0.05 130.79 0.35 129.39 0.35L129.39 0.35Q127.79 0.35 126.44-0.23 125.09-0.8 124.29-2.02 123.49-3.25 123.49-5.1L123.49-5.1 123.49-22.65 119.94-22.65 119.94-26.1 123.49-26.1 123.49-34.8 127.89-34.8 127.89-26.1 133.74-26.1 133.74-22.65 127.89-22.65 127.89-6.45Q127.99-5.05 128.84-4.38 129.69-3.7 130.84-3.7L130.84-3.7Q132.14-3.7 133.24-4.15 134.34-4.6 134.69-4.8L134.69-4.8ZM137.79-7.55L137.79-7.55Q137.79-10.05 139.21-11.88 140.64-13.7 143.14-14.7 145.64-15.7 148.94-15.7L148.94-15.7Q150.69-15.7 152.64-15.43 154.59-15.15 156.09-14.6L156.09-14.6 156.09-16.5Q156.09-19.5 154.29-21.23 152.49-22.95 149.19-22.95L149.19-22.95Q147.04-22.95 145.06-22.18 143.09-21.4 140.89-19.95L140.89-19.95 139.29-23.05Q141.84-24.8 144.39-25.68 146.94-26.55 149.69-26.55L149.69-26.55Q154.69-26.55 157.59-23.78 160.49-21 160.49-16.05L160.49-16.05 160.49-5Q160.49-4.2 160.81-3.83 161.14-3.45 161.89-3.4L161.89-3.4 161.89 0Q161.24 0.1 160.76 0.15 160.29 0.2 159.99 0.2L159.99 0.2Q158.44 0.2 157.66-0.65 156.89-1.5 156.79-2.45L156.79-2.45 156.69-4.1Q154.99-1.9 152.24-0.7 149.49 0.5 146.79 0.5L146.79 0.5Q144.19 0.5 142.14-0.58 140.09-1.65 138.94-3.48 137.79-5.3 137.79-7.55ZM154.79-5.7L154.79-5.7Q155.39-6.4 155.74-7.13 156.09-7.85 156.09-8.35L156.09-8.35 156.09-11.6Q154.54-12.2 152.84-12.53 151.14-12.85 149.49-12.85L149.49-12.85Q146.14-12.85 144.06-11.53 141.99-10.2 141.99-7.9L141.99-7.9Q141.99-6.65 142.66-5.48 143.34-4.3 144.66-3.55 145.99-2.8 147.94-2.8L147.94-2.8Q149.99-2.8 151.84-3.63 153.69-4.45 154.79-5.7ZM171.94 0L167.54 0 167.54-26.1 171.94-26.1 171.94 0ZM171.94-31L167.54-31 167.54-36.5 171.94-36.5 171.94-31ZM179.13-5.15L179.13-36.5 183.53-36.5 183.53-6.75Q183.53-4.6 184.13-4.1 184.73-3.6 185.58-3.6L185.58-3.6Q186.63-3.6 187.58-3.83 188.53-4.05 189.18-4.3L189.18-4.3 189.88-0.7Q188.78-0.25 187.28 0.05 185.78 0.35 184.63 0.35L184.63 0.35Q182.08 0.35 180.61-1.1 179.13-2.55 179.13-5.15L179.13-5.15ZM202.28 0.5L202.28 0.5Q199.03 0.5 196.18-0.58 193.33-1.65 191.28-3.8L191.28-3.8 192.98-6.9Q195.23-4.8 197.48-3.9 199.73-3 202.08-3L202.08-3Q204.78-3 206.48-4.03 208.18-5.05 208.18-7.05L208.18-7.05Q208.18-8.5 207.31-9.2 206.43-9.9 204.83-10.38 203.23-10.85 201.03-11.45L201.03-11.45Q198.33-12.25 196.48-13.15 194.63-14.05 193.68-15.4 192.73-16.75 192.73-18.8L192.73-18.8Q192.73-21.3 194.03-23.03 195.33-24.75 197.61-25.65 199.88-26.55 202.78-26.55L202.78-26.55Q205.68-26.55 208.03-25.65 210.38-24.75 212.08-23L212.08-23 210.08-19.95Q208.53-21.55 206.68-22.33 204.83-23.1 202.53-23.1L202.53-23.1Q201.18-23.1 199.88-22.78 198.58-22.45 197.73-21.63 196.88-20.8 196.88-19.3L196.88-19.3Q196.88-18.05 197.56-17.32 198.23-16.6 199.56-16.1 200.88-15.6 202.78-15L202.78-15Q205.73-14.15 207.91-13.3 210.08-12.45 211.28-11.1 212.48-9.75 212.48-7.35L212.48-7.35Q212.48-3.65 209.68-1.58 206.88 0.5 202.28 0.5Z" opacity="1" transform="matrix(1,0,0,1,0,0)" fill="#000000" class="wordmark-text-0" data-fill-palette-color="primary" id="text-0"></path></svg></g></svg></g></svg></g></svg></g><g transform="matrix(1,0,0,1,149.73216889099976,0)"><svg viewBox="0 0 96.05566221800048 96.05566221800049" height="96.05566221800049" width="96.05566221800048"><g><svg></svg></g><g id="icon-0"><svg viewBox="0 0 96.05566221800048 96.05566221800049" height="96.05566221800049" width="96.05566221800048"><g><path transform="scale(0.96056,0.96056)" d="M30 100c-16.569 0-30-13.431-30-30v-40c0-16.569 13.431-30 30-30h40c16.569 0 30 13.431 30 30v40c0 16.569-13.431 30-30 30z" fill="#000000" fill-rule="nonzero" stroke="none" stroke-width="1" stroke-linecap="butt" stroke-linejoin="miter" stroke-miterlimit="10" stroke-dasharray="" stroke-dashoffset="0" font-family="none" font-weight="none" font-size="none" text-anchor="none" style="mix-blend-mode: normal" data-fill-palette-color="accent"></path></g><g transform="matrix(1,0,0,1,24.425562846531424,19.2111324436001)"><svg viewBox="0 0 47.20453652493763 57.63339733080029" height="57.63339733080029" width="47.20453652493763"><g><svg xmlns="http://www.w3.org/2000/svg" xmlns:xlink="http://www.w3.org/1999/xlink" version="1.1" x="0" y="0" viewBox="0.1589515777418547 6.874 68.96304842225814 84.199" enable-background="new -17.283 0 100 100" xml:space="preserve" height="57.63339733080029" width="47.20453652493763" class="icon-cg-0" data-fill-palette-color="quaternary" id="cg-0"><g fill="#ffffff" data-fill-palette-color="quaternary"><path d="M54.101 6.874c-8.296 0-15.021 6.725-15.021 15.021 0 4.081 1.633 7.777 4.275 10.484l4.321-6.008c0.197-0.38 0.445-0.721 0.739-1.015 0.787-0.786 1.831-1.218 2.941-1.218 1.111 0 2.155 0.433 2.94 1.22 1.375 1.374 1.608 3.559 0.551 5.194l-0.054 0.083L54.6 30.882c-1.145 1.452-2.614 3.369-4.258 5.541 1.203 0.311 2.458 0.493 3.759 0.493 8.296 0 15.021-6.725 15.021-15.021C69.121 13.599 62.396 6.874 54.101 6.874zM42.629 16.852c1.175-2.692 8.567 3.434 8.455 4.249C50.979 21.922 41.489 19.499 42.629 16.852zM53.714 19.226c-0.778 0.268-2.902-9.298-0.015-9.466C56.614 9.589 54.479 18.955 53.714 19.226zM63.922 31.054c-1.626 2.42-7.773-4.967-7.51-5.749C56.659 24.529 65.545 28.657 63.922 31.054zM56.731 20.8c-0.537-0.625 7.642-6.03 8.829-3.405C66.775 20.059 57.261 21.437 56.731 20.8z" fill="#ffffff" data-fill-palette-color="quaternary"></path></g><g fill="#ffffff" data-fill-palette-color="quaternary"><path fill="#ffffff" d="M53.029 29.644l0.14-0.178c0.549-0.848 0.429-1.98-0.284-2.693-0.409-0.41-0.951-0.635-1.527-0.635s-1.119 0.225-1.528 0.634c-0.147 0.147-0.274 0.323-0.377 0.521l-0.067 0.128-5.699 7.923c0.027 0.02 0.055 0.038 0.081 0.059l5.719-7.95c0.1-0.221 0.234-0.431 0.416-0.612 0.805-0.804 2.107-0.804 2.91 0 0.699 0.698 0.789 1.773 0.273 2.57-0.044 0.056-0.091 0.115-0.136 0.172-1.529 1.939-3.623 4.688-5.935 7.762 0.03 0.014 0.06 0.027 0.089 0.04l1.644-2.171C50.507 32.891 51.947 31.016 53.029 29.644z" data-fill-palette-color="quaternary"></path><path d="M41.924 33.776l0.234 0.24 0.007-0.009C42.086 33.929 42.002 33.856 41.924 33.776z" fill="#ffffff" data-fill-palette-color="quaternary"></path><path d="M41.924 33.776c-0.397-0.407-0.771-0.832-1.122-1.271-1.022-1.276-1.846-2.678-2.456-4.166-10.14 0-21.599 0-30.989 0l19.442 27.039 15.359-21.362L41.924 33.776z" fill="#ffffff" data-fill-palette-color="quaternary"></path><path d="M52.812 26.841c-0.803-0.804-2.105-0.804-2.91 0-0.182 0.182-0.316 0.391-0.416 0.612l-5.719 7.95L26.799 58.991 4.021 27.327l-0.35-0.486c-0.804-0.804-2.107-0.804-2.911 0-0.693 0.692-0.785 1.753-0.285 2.548 0.09 0.114 0.179 0.228 0.273 0.348C7.363 38.203 24.408 61.44 24.408 61.44v23.214c0 0-8.352 3.457-12.047 5.297-0.051 0.025-0.103 0.051-0.151 0.075-0.152 0.104-0.259 0.271-0.259 0.469 0 0.318 0.259 0.578 0.578 0.578 5.89 0 21.549 0 27.846 0 0.319 0 0.578-0.26 0.578-0.578 0-0.191-0.1-0.354-0.244-0.459-0.051-0.027-0.105-0.056-0.157-0.083-3.475-1.84-11.346-5.299-11.346-5.299V61.44c0 0 10.121-13.868 17.81-24.094 2.312-3.074 4.405-5.823 5.935-7.762 0.045-0.057 0.092-0.117 0.136-0.172C53.601 28.614 53.511 27.54 52.812 26.841z" fill="#ffffff" data-fill-palette-color="quaternary"></path></g></svg></g></svg></g></svg></g></svg></g><g></g></svg></g><defs></defs></svg><rect width="395.52" height="181.96890297905486" fill="none" stroke="none" visibility="hidden"></rect></g></svg></g></svg>